<?xml version="1.0" encoding="UTF-8" standalone="no"?>
<svg
   xmlns:dc="http://purl.org/dc/elements/1.1/"
   xmlns:cc="http://creativecommons.org/ns#"
   xmlns:rdf="http://www.w3.org/1999/02/22-rdf-syntax-ns#"
   xmlns:svg="http://www.w3.org/2000/svg"
   xmlns="http://www.w3.org/2000/svg"
   viewBox="0 0 300 300"
   height="300"
   width="300"
   id="svg10"
   version="1.1">
  <metadata
     id="metadata16">
    <rdf:RDF>
      <cc:Work
         rdf:about="">
        <dc:format>image/svg+xml</dc:format>
        <dc:type
           rdf:resource="http://purl.org/dc/dcmitype/StillImage" />
        <dc:title></dc:title>
      </cc:Work>
    </rdf:RDF>
  </metadata>
  <defs
     id="defs14" />
  <path
     id="path20"
     d="m 155.18176,283.29742 -6.21812,-1.63957 -5.52722,1.25358 c -13.37065,3.0325 -35.31525,-1.59752 -54.501746,-11.49914 -5.346008,-2.75892 -8.825039,-5.5759 -26.945191,-21.81758 C 50.545854,239.33741 40.649305,229.98564 39.997155,228.813 35.795903,221.25863 28.970221,199.63298 24.61632,180.08227 c -3.117235,-13.9976 -4.50595,-23.49921 -4.50595,-30.82974 0,-5.84093 0.161266,-6.40249 10.844961,-37.7648 L 41.800282,79.652026 51.106847,68.185492 C 62.975347,52.672655 62.166892,52.288525 68.643426,43.562134 L 79.009791,36.683107 C 86.469,31.733244 90.513827,28.523995 93.432882,25.239536 l 4.056736,-4.564546 13.969432,-2.972542 c 13.12931,-2.79377 14.40709,-2.945848 21.24616,-2.52868 13.72767,0.837357 29.51509,4.207109 42.51272,9.074145 8.94871,3.350895 11.75468,4.779935 23.92152,12.182931 5.75062,3.499008 12.29912,6.89048 15.19985,7.87202 4.7833,1.618563 5.52081,2.161193 12.0054,8.833183 3.79996,3.909776 10.77906,10.046257 15.50911,13.636624 9.37324,7.114804 22.82113,19.64005 26.57008,24.747145 2.23202,3.040629 2.46115,3.897479 4.14182,15.488724 1.65604,11.42142 1.97083,12.61944 4.5515,17.32154 l 2.77242,5.05149 v 15.79635 15.79634 l -2.22668,6.79329 -2.2267,6.79329 1.54908,9.13293 c 0.85199,5.02311 1.54219,9.59928 1.5338,10.16928 -0.009,0.56999 -0.98498,1.65817 -2.17018,2.41816 -3.25349,2.08627 -7.84638,8.69397 -9.95608,14.32366 -5.92909,15.82159 -9.81738,22.22692 -16.55617,27.27355 -6.46754,4.84349 -12.93216,8.59726 -29.01921,16.85041 -12.45443,6.38948 -14.44895,7.66505 -20.21113,12.92566 l -6.39308,5.83659 -6.92553,1.24391 c -5.94798,1.06832 -8.14381,1.88498 -15.55632,5.78554 -4.74691,2.49789 -9.01344,4.51345 -9.48116,4.47903 -0.4677,-0.0344 -3.64854,-0.80038 -7.06851,-1.70214 z m 21.59609,-27.27932 11.23256,-3.74506 2.75244,-5.29054 2.75245,-5.29055 7.11579,-2.85988 7.1158,-2.85986 10.25778,-11.45995 10.25777,-11.45994 -0.372,-7.00376 c -0.27824,-5.23833 -0.92917,-8.73048 -2.58237,-13.85406 -1.95996,-6.07431 -2.62107,-7.26104 -5.83599,-10.47595 -2.92686,-2.92686 -4.52551,-3.90359 -8.29465,-5.06776 -5.95418,-1.83905 -7.33876,-1.81218 -13.43343,0.26076 l -5.00662,1.70285 -12.21424,-5.85813 -12.21424,-5.85812 0.2208,-2.58103 c 0.40176,-4.6966 2.62282,-8.32638 8.56926,-14.00438 l 5.7189,-5.46071 4.97365,-0.0215 c 9.45283,-0.0409 28.52216,3.08687 38.38205,6.29545 5.79034,1.88427 11.99886,4.87883 16.41909,7.91941 3.49419,2.40357 3.74154,2.46785 6.27666,1.63118 2.41823,-0.79808 2.67844,-1.13302 3.10856,-4.00131 0.71696,-4.78096 -0.20438,-15.76462 -1.79876,-21.44395 -4.07298,-14.50831 -15.25439,-32.84035 -28.52274,-46.763362 -6.17273,-6.477306 -7.3098,-7.315722 -19.58678,-14.442139 -7.16848,-4.161096 -19.7658,-12.041246 -27.99402,-17.511446 l -14.96042,-9.945816 -17.16654,-1.203174 -17.16655,-1.203176 -3.95704,2.823869 c -2.17637,1.553127 -4.14845,3.393034 -4.38239,4.08868 -0.23394,0.695646 -0.43075,4.426519 -0.43736,8.290828 -0.0236,13.772928 4.06841,25.976387 10.97663,32.735477 4.53409,4.436204 8.46137,5.786414 23.65183,8.131589 8.86576,1.36874 11.49565,2.06155 15.68455,4.1318 5.99528,2.96303 7.8633,5.05397 7.8633,8.80164 0,3.64081 -0.64198,4.64981 -5.19184,8.16 -3.24602,2.50428 -6.54551,3.92264 -20.18198,8.67568 l -16.30157,5.68195 -5.93477,-3.01176 c -3.26412,-1.65647 -8.9573,-4.44733 -12.6515,-6.2019 -9.79464,-4.65201 -12.3415,-7.48686 -21.457317,-23.88365 -4.095837,-7.367275 -7.712536,-13.820769 -8.037104,-14.341109 -0.452544,-0.725496 -2.582274,0.544715 -9.134674,5.448074 -4.699508,3.51678 -8.941811,6.889615 -9.42735,7.495185 -1.673145,2.08677 -9.115794,28.27443 -12.252975,43.11326 -0.945245,4.471 -1.718628,10.14432 -1.718628,12.60736 0,3.97493 0.261688,4.84732 2.328253,7.76166 2.438805,3.43929 3.401894,7.33222 4.230814,17.10143 0.412501,4.86143 1.951649,8.94559 4.530214,12.02099 l 1.389685,1.65745 4.296775,-1.28422 c 19.794543,-5.91615 41.809047,-21.15417 52.659937,-36.45023 l 2.76361,-3.89573 5.33105,-0.0149 c 5.9987,-0.0168 10.06215,1.4262 10.56171,3.75056 0.16741,0.77896 0.81885,5.90534 1.44763,11.39195 1.35369,11.81194 0.80668,16.53559 -2.78204,24.02397 -2.90307,6.05773 -6.00573,8.83154 -10.55324,9.4348 -3.31288,0.43946 -3.4887,0.57717 -5.0829,3.98086 l -1.65133,3.52565 -14.00801,6.99411 c -13.380861,6.68101 -14.008016,7.0837 -14.008016,8.99452 0,4.96195 1.527792,7.52213 8.556116,14.3378 l 6.85735,6.6499 16.64758,5.56241 c 20.77363,6.94106 28.65299,8.59432 36.68372,7.69701 1.89999,-0.2123 8.50917,-2.07127 14.68707,-4.13104 z"
     style="fill:#000000;stroke-width:0.69090229" />
</svg>
